M48
; DRILL file {KiCad 7.0.1} date Sun Aug 20 11:19:05 2023
; FORMAT={-:-/ absolute / metric / decimal}
; #@! TF.CreationDate,2023-08-20T11:19:05+01:00
; #@! TF.GenerationSoftware,Kicad,Pcbnew,7.0.1
; #@! TF.FileFunction,Plated,1,4,PTH
FMAT,2
METRIC
; #@! TA.AperFunction,Plated,PTH,ViaDrill
T1C0.300
; #@! TA.AperFunction,Plated,PTH,ViaDrill
T2C0.500
; #@! TA.AperFunction,Plated,PTH,ComponentDrill
T3C0.800
; #@! TA.AperFunction,Plated,PTH,ComponentDrill
T4C0.850
; #@! TA.AperFunction,Plated,PTH,ComponentDrill
T5C1.000
; #@! TA.AperFunction,Plated,PTH,ComponentDrill
T6C1.800
; #@! TA.AperFunction,Plated,PTH,ComponentDrill
T7C2.800
%
G90
G05
T1
X52.07Y-126.492
X52.197Y-75.692
X59.182Y-117.729
X59.309Y-85.725
X59.436Y-62.611
X59.436Y-94.234
X59.563Y-71.882
X59.563Y-122.174
X61.468Y-69.596
X62.103Y-112.649
X62.357Y-121.666
X62.992Y-72.898
X63.119Y-66.294
X63.119Y-90.678
X63.754Y-90.17
X63.881Y-72.009
X64.262Y-89.535
X64.389Y-80.772
X65.659Y-61.214
X67.564Y-126.492
X67.691Y-105.664
X68.326Y-100.711
X68.326Y-122.174
X68.453Y-77.216
X68.961Y-77.851
X68.961Y-95.631
X68.961Y-115.951
X68.961Y-121.666
X69.596Y-78.613
X69.596Y-91.293
X69.596Y-116.713
X69.85Y-122.555
X69.977Y-142.621
X70.047Y-115.59
X70.231Y-79.375
X70.231Y-93.98
X70.849Y-90.912
X70.85Y-107.947
X70.866Y-137.668
X70.993Y-88.646
X71.374Y-69.977
X71.486Y-108.077
X71.501Y-90.424
X71.501Y-132.715
X72.136Y-89.916
X72.136Y-108.077
X72.263Y-68.453
X72.263Y-88.392
X72.263Y-127.889
X72.898Y-108.331
X73.025Y-84.074
X73.533Y-64.008
X73.533Y-65.405
X78.359Y-139.573
X78.74Y-88.9
X78.867Y-115.824
X78.994Y-140.462
X79.375Y-88.392
X79.375Y-134.366
X79.883Y-84.074
X80.01Y-135.001
X90.297Y-63.119
X92.837Y-61.595
X93.98Y-100.33
X93.98Y-101.6
X93.98Y-102.87
X95.25Y-84.074
X95.25Y-99.06
X95.25Y-104.14
X95.377Y-71.374
X95.885Y-96.52
X96.52Y-91.44
X96.52Y-92.71
X96.52Y-93.98
X96.52Y-95.25
X96.52Y-104.14
X97.79Y-70.739
X97.79Y-90.17
X97.79Y-104.14
X99.06Y-90.17
X99.06Y-104.14
X99.695Y-100.33
X100.33Y-90.17
X100.33Y-104.14
X100.41Y-70.116
X101.6Y-91.44
X101.6Y-92.71
X101.6Y-93.98
X101.6Y-95.25
X101.6Y-104.14
X102.87Y-70.106
X102.87Y-96.52
X102.87Y-104.14
X104.14Y-99.06
X104.14Y-104.14
X105.41Y-100.33
X105.41Y-101.6
X105.41Y-102.87
X105.537Y-68.834
X107.442Y-114.554
X108.077Y-69.469
X108.077Y-113.665
X110.492Y-114.066
X113.03Y-134.239
X113.919Y-136.398
X115.57Y-76.073
X115.697Y-141.478
X115.731Y-136.545
X115.824Y-67.31
X118.11Y-68.072
X118.237Y-123.317
X118.328Y-75.204
X119.253Y-118.217
X123.19Y-137.668
X126.111Y-73.406
X128.35Y-64.135
X128.397Y-74.041
X130.81Y-74.549
X130.937Y-63.647
X133.477Y-63.32
X133.604Y-82.804
X135.97Y-82.042
X136.017Y-62.994
X138.43Y-61.976
X138.557Y-64.643
X138.557Y-85.471
X141.097Y-86.106
X141.478Y-121.412
X142.748Y-123.063
X143.599Y-84.983
X144.018Y-121.539
X144.272Y-74.676
X144.907Y-74.168
X145.288Y-109.474
X146.177Y-84.455
X147.663Y-108.986
X148.336Y-76.581
X148.717Y-83.439
X148.971Y-135.128
X149.479Y-73.66
X149.987Y-73.152
X150.241Y-106.807
X150.241Y-116.586
X150.622Y-76.962
X151.13Y-74.696
X151.384Y-126.873
X152.781Y-107.95
X152.781Y-117.983
X153.543Y-77.724
X153.797Y-83.312
X153.797Y-123.19
X154.686Y-75.184
X155.321Y-75.692
X155.321Y-101.727
X155.321Y-115.189
X155.829Y-78.867
X156.21Y-95.25
X156.464Y-76.835
X157.861Y-117.221
X158.877Y-76.2
X159.004Y-117.221
X160.401Y-115.824
X160.528Y-123.063
X160.655Y-107.95
X161.163Y-131.064
X162.179Y-103.124
X162.179Y-106.807
X162.814Y-108.966
X162.844Y-103.535
X163.449Y-109.474
X163.576Y-103.505
X163.576Y-117.221
X164.084Y-104.013
X164.084Y-106.807
X164.846Y-106.426
X164.973Y-104.521
X165.608Y-104.14
X165.989Y-117.094
X166.878Y-117.094
X167.132Y-68.819
X167.132Y-67.31
X167.132Y-68.072
X167.132Y-69.469
X169.037Y-135.255
X169.164Y-141.478
X170.307Y-135.382
X171.069Y-113.538
X171.069Y-122.047
X171.45Y-65.024
X171.577Y-113.03
X171.704Y-64.262
X171.704Y-122.428
X172.085Y-112.522
X172.339Y-63.881
X172.519Y-93.599
X172.593Y-112.014
X172.847Y-63.373
X172.951Y-93.115
X173.355Y-71.882
X173.736Y-71.247
X173.863Y-96.52
X173.99Y-95.883
X174.316Y-70.954
X174.518Y-70.104
X174.625Y-62.018
X175.514Y-129.032
X175.641Y-67.564
X175.641Y-106.426
X176.149Y-68.199
X176.149Y-106.934
X176.911Y-71.501
X176.911Y-89.535
X176.911Y-108.077
X176.911Y-118.09
X177.419Y-64.262
X179.832Y-92.075
X180.467Y-101.6
X182.753Y-117.602
X182.88Y-86.106
X183.388Y-74.676
X183.388Y-76.708
X183.388Y-84.963
X183.388Y-106.172
X183.388Y-112.014
X183.515Y-94.869
X184.023Y-74.168
X184.023Y-76.2
X184.023Y-84.328
X184.023Y-112.522
X184.038Y-106.172
X184.404Y-94.742
X184.531Y-85.471
X184.658Y-67.564
X184.658Y-117.094
X185.325Y-68.199
X185.928Y-75.946
X185.928Y-83.82
X185.928Y-94.869
X185.928Y-106.299
X186.055Y-73.66
X186.055Y-113.538
X186.055Y-75.309
X186.455Y-83.204
X186.69Y-73.152
X186.69Y-94.869
X186.69Y-106.299
X186.69Y-113.03
X188.849Y-89.408
X188.849Y-107.95
X189.23Y-71.501
X189.23Y-78.486
X189.23Y-96.647
X190.627Y-82.804
X191.008Y-81.407
X192.278Y-70.739
X193.421Y-73.787
X194.183Y-71.12
X196.342Y-86.106
X196.469Y-68.834
X197.104Y-85.471
X197.485Y-73.787
X198.12Y-70.739
X198.247Y-78.105
X201.168Y-92.329
X201.168Y-97.409
X203.708Y-101.981
T2
X68.072Y-116.459
X68.834Y-62.357
X74.549Y-86.868
X74.549Y-118.11
X76.835Y-124.079
X76.962Y-92.837
X78.359Y-137.795
X78.359Y-144.272
X86.741Y-97.155
X129.921Y-105.791
X131.064Y-98.171
X136.398Y-108.204
X138.938Y-123.825
X152.527Y-93.726
X158.877Y-53.721
X165.735Y-128.524
X167.64Y-120.777
X169.291Y-107.95
X169.291Y-112.268
X179.07Y-139.954
X179.705Y-106.553
X179.832Y-69.596
X179.832Y-87.63
T3
X85.17Y-59.49
X85.17Y-92.51
X87.71Y-59.49
X87.71Y-92.51
X90.25Y-59.49
X90.25Y-92.51
X92.79Y-59.49
X92.79Y-92.51
X95.33Y-59.49
X95.33Y-92.51
X97.118Y-101.6
X97.87Y-59.49
X97.87Y-92.51
X99.314Y-132.334
X99.314Y-139.954
X100.41Y-59.49
X100.41Y-92.51
X102.018Y-101.6
X102.95Y-59.49
X102.95Y-92.51
X105.49Y-59.49
X105.49Y-92.51
X106.934Y-132.334
X106.934Y-139.954
X108.03Y-59.49
X108.03Y-92.51
X110.57Y-59.49
X110.57Y-92.51
X113.025Y-129.027
X113.025Y-144.267
X113.11Y-59.49
X113.11Y-92.51
X115.565Y-129.027
X115.565Y-144.267
X115.65Y-59.49
X115.65Y-92.51
X118.105Y-129.027
X118.105Y-144.267
X118.19Y-59.49
X118.19Y-92.51
X120.645Y-129.027
X120.645Y-144.267
X120.73Y-59.49
X120.73Y-92.51
X123.185Y-129.027
X123.185Y-144.267
X123.27Y-59.49
X123.27Y-92.51
X125.725Y-129.027
X125.725Y-144.267
X125.81Y-59.49
X125.81Y-92.51
X128.265Y-129.027
X128.265Y-144.267
X128.35Y-59.49
X128.35Y-92.51
X130.805Y-129.027
X130.805Y-144.267
X130.89Y-59.49
X130.89Y-92.51
X133.345Y-129.027
X133.345Y-144.267
X133.36Y-102.108
X133.43Y-59.49
X133.43Y-92.51
X135.035Y-112.2
X135.035Y-119.82
X135.885Y-129.027
X135.885Y-144.267
X135.9Y-102.108
X135.97Y-59.49
X135.97Y-92.51
X137.575Y-112.2
X137.575Y-119.82
X138.425Y-129.027
X138.425Y-144.267
X138.44Y-102.108
X138.51Y-59.49
X138.51Y-92.51
X140.115Y-112.2
X140.115Y-119.82
X140.965Y-129.027
X140.965Y-144.267
X140.98Y-102.108
X141.05Y-59.49
X141.05Y-92.51
X142.655Y-112.2
X142.655Y-119.82
X143.505Y-129.027
X143.505Y-144.267
X143.52Y-102.108
X143.59Y-59.49
X143.59Y-92.51
X145.195Y-112.2
X145.195Y-119.82
X146.045Y-129.027
X146.045Y-144.267
X146.06Y-102.108
X146.13Y-59.49
X146.13Y-92.51
X147.735Y-112.2
X147.735Y-119.82
X148.585Y-129.027
X148.585Y-144.267
X148.6Y-102.108
X148.67Y-59.49
X148.67Y-92.51
X150.275Y-112.2
X150.275Y-119.82
X151.125Y-129.027
X151.125Y-144.267
X151.14Y-102.108
X151.21Y-59.49
X151.21Y-92.51
X152.815Y-112.2
X152.815Y-119.82
X153.665Y-129.027
X153.665Y-144.267
X153.75Y-59.49
X153.75Y-92.51
X155.355Y-112.2
X155.355Y-119.82
X156.205Y-129.027
X156.205Y-144.267
X156.29Y-59.49
X156.29Y-92.51
X157.895Y-112.2
X157.895Y-119.82
X158.745Y-129.027
X158.745Y-144.267
X158.83Y-59.49
X158.83Y-92.51
X160.435Y-112.2
X160.435Y-119.82
X161.285Y-129.027
X161.285Y-144.267
X162.975Y-112.2
X162.975Y-119.82
T4
X54.45Y-75.73
X54.45Y-78.27
X54.45Y-80.73
X54.45Y-83.27
X54.45Y-85.73
X54.45Y-88.27
X54.45Y-90.73
X54.45Y-93.27
X54.45Y-95.73
X54.45Y-98.27
X54.45Y-100.73
X54.45Y-103.27
X54.45Y-105.73
X54.45Y-108.27
X54.45Y-112.73
X54.45Y-115.27
X54.45Y-117.73
X54.45Y-120.27
X54.45Y-122.73
X54.45Y-125.27
X54.45Y-127.73
X54.45Y-130.27
X54.45Y-132.73
X54.45Y-135.27
X54.45Y-137.73
X54.45Y-140.27
X54.45Y-142.73
X54.45Y-145.27
T5
X52.0Y-56.5
X52.0Y-61.0
X52.0Y-66.75
X52.0Y-71.25
X54.5Y-55.6
X54.5Y-61.9
X54.5Y-65.85
X54.5Y-72.15
X57.0Y-56.5
X57.0Y-61.0
X57.0Y-66.75
X57.0Y-71.25
X73.66Y-132.08
X73.66Y-134.62
X73.66Y-137.16
X73.66Y-139.7
X73.66Y-142.24
X73.66Y-144.78
X199.92Y-60.6
X199.92Y-63.14
X199.92Y-65.68
X199.92Y-68.22
X199.92Y-70.76
X199.92Y-73.3
X199.92Y-75.84
X199.92Y-78.38
X199.92Y-80.92
X199.92Y-83.46
X199.92Y-86.0
X199.92Y-88.54
X199.92Y-91.08
X199.92Y-93.62
X199.92Y-96.16
X199.92Y-98.7
X199.92Y-101.24
X199.92Y-103.78
X199.92Y-106.32
X199.92Y-108.86
X199.92Y-111.4
X199.92Y-113.94
X199.92Y-116.48
X199.92Y-119.02
X199.92Y-121.56
X199.92Y-124.1
X199.92Y-126.64
X199.92Y-129.18
X199.92Y-131.72
X199.92Y-134.26
X199.92Y-136.8
X199.92Y-139.34
X202.46Y-60.6
X202.46Y-63.14
X202.46Y-65.68
X202.46Y-68.22
X202.46Y-70.76
X202.46Y-73.3
X202.46Y-75.84
X202.46Y-78.38
X202.46Y-80.92
X202.46Y-83.46
X202.46Y-86.0
X202.46Y-88.54
X202.46Y-91.08
X202.46Y-93.62
X202.46Y-96.16
X202.46Y-98.7
X202.46Y-101.24
X202.46Y-103.78
X202.46Y-106.32
X202.46Y-108.86
X202.46Y-111.4
X202.46Y-113.94
X202.46Y-116.48
X202.46Y-119.02
X202.46Y-121.56
X202.46Y-124.1
X202.46Y-126.64
X202.46Y-129.18
X202.46Y-131.72
X202.46Y-134.26
X202.46Y-136.8
X202.46Y-139.34
X205.0Y-60.6
X205.0Y-63.14
X205.0Y-65.68
X205.0Y-68.22
X205.0Y-70.76
X205.0Y-73.3
X205.0Y-75.84
X205.0Y-78.38
X205.0Y-80.92
X205.0Y-83.46
X205.0Y-86.0
X205.0Y-88.54
X205.0Y-91.08
X205.0Y-93.62
X205.0Y-96.16
X205.0Y-98.7
X205.0Y-101.24
X205.0Y-103.78
X205.0Y-106.32
X205.0Y-108.86
X205.0Y-111.4
X205.0Y-113.94
X205.0Y-116.48
X205.0Y-119.02
X205.0Y-121.56
X205.0Y-124.1
X205.0Y-126.64
X205.0Y-129.18
X205.0Y-131.72
X205.0Y-134.26
X205.0Y-136.8
X205.0Y-139.34
T6
X181.225Y-56.02
X181.225Y-59.98
T7
X207.54Y-55.52
X207.54Y-144.42
T0
M30
