%TF.GenerationSoftware,KiCad,Pcbnew,7.0.1*%
%TF.CreationDate,2023-08-20T11:19:07+01:00*%
%TF.ProjectId,J11HackPlus_V2,4a313148-6163-46b5-906c-75735f56322e,rev?*%
%TF.SameCoordinates,Original*%
%TF.FileFunction,Drillmap*%
%TF.FilePolarity,Positive*%
%FSLAX45Y45*%
G04 Gerber Fmt 4.5, Leading zero omitted, Abs format (unit mm)*
G04 Created by KiCad (PCBNEW 7.0.1) date 2023-08-20 11:19:07*
%MOMM*%
%LPD*%
G01*
G04 APERTURE LIST*
%ADD10C,0.100000*%
%ADD11C,0.200000*%
G04 APERTURE END LIST*
D10*
X5000000Y-5000000D02*
X21000000Y-5000000D01*
X21000000Y-15000000D01*
X5000000Y-15000000D01*
X5000000Y-5000000D01*
D11*
X5242619Y-15317524D02*
X5242619Y-15117524D01*
X5242619Y-15117524D02*
X5290238Y-15117524D01*
X5290238Y-15117524D02*
X5318810Y-15127048D01*
X5318810Y-15127048D02*
X5337857Y-15146095D01*
X5337857Y-15146095D02*
X5347381Y-15165143D01*
X5347381Y-15165143D02*
X5356905Y-15203238D01*
X5356905Y-15203238D02*
X5356905Y-15231809D01*
X5356905Y-15231809D02*
X5347381Y-15269905D01*
X5347381Y-15269905D02*
X5337857Y-15288952D01*
X5337857Y-15288952D02*
X5318810Y-15308000D01*
X5318810Y-15308000D02*
X5290238Y-15317524D01*
X5290238Y-15317524D02*
X5242619Y-15317524D01*
X5442619Y-15317524D02*
X5442619Y-15184190D01*
X5442619Y-15222286D02*
X5452143Y-15203238D01*
X5452143Y-15203238D02*
X5461667Y-15193714D01*
X5461667Y-15193714D02*
X5480714Y-15184190D01*
X5480714Y-15184190D02*
X5499762Y-15184190D01*
X5566429Y-15317524D02*
X5566429Y-15184190D01*
X5566429Y-15117524D02*
X5556905Y-15127048D01*
X5556905Y-15127048D02*
X5566429Y-15136571D01*
X5566429Y-15136571D02*
X5575952Y-15127048D01*
X5575952Y-15127048D02*
X5566429Y-15117524D01*
X5566429Y-15117524D02*
X5566429Y-15136571D01*
X5690238Y-15317524D02*
X5671190Y-15308000D01*
X5671190Y-15308000D02*
X5661667Y-15288952D01*
X5661667Y-15288952D02*
X5661667Y-15117524D01*
X5795000Y-15317524D02*
X5775952Y-15308000D01*
X5775952Y-15308000D02*
X5766428Y-15288952D01*
X5766428Y-15288952D02*
X5766428Y-15117524D01*
X6023571Y-15317524D02*
X6023571Y-15117524D01*
X6023571Y-15117524D02*
X6090238Y-15260381D01*
X6090238Y-15260381D02*
X6156905Y-15117524D01*
X6156905Y-15117524D02*
X6156905Y-15317524D01*
X6337857Y-15317524D02*
X6337857Y-15212762D01*
X6337857Y-15212762D02*
X6328333Y-15193714D01*
X6328333Y-15193714D02*
X6309286Y-15184190D01*
X6309286Y-15184190D02*
X6271190Y-15184190D01*
X6271190Y-15184190D02*
X6252143Y-15193714D01*
X6337857Y-15308000D02*
X6318809Y-15317524D01*
X6318809Y-15317524D02*
X6271190Y-15317524D01*
X6271190Y-15317524D02*
X6252143Y-15308000D01*
X6252143Y-15308000D02*
X6242619Y-15288952D01*
X6242619Y-15288952D02*
X6242619Y-15269905D01*
X6242619Y-15269905D02*
X6252143Y-15250857D01*
X6252143Y-15250857D02*
X6271190Y-15241333D01*
X6271190Y-15241333D02*
X6318809Y-15241333D01*
X6318809Y-15241333D02*
X6337857Y-15231809D01*
X6433095Y-15184190D02*
X6433095Y-15384190D01*
X6433095Y-15193714D02*
X6452143Y-15184190D01*
X6452143Y-15184190D02*
X6490238Y-15184190D01*
X6490238Y-15184190D02*
X6509286Y-15193714D01*
X6509286Y-15193714D02*
X6518809Y-15203238D01*
X6518809Y-15203238D02*
X6528333Y-15222286D01*
X6528333Y-15222286D02*
X6528333Y-15279428D01*
X6528333Y-15279428D02*
X6518809Y-15298476D01*
X6518809Y-15298476D02*
X6509286Y-15308000D01*
X6509286Y-15308000D02*
X6490238Y-15317524D01*
X6490238Y-15317524D02*
X6452143Y-15317524D01*
X6452143Y-15317524D02*
X6433095Y-15308000D01*
X6614048Y-15298476D02*
X6623571Y-15308000D01*
X6623571Y-15308000D02*
X6614048Y-15317524D01*
X6614048Y-15317524D02*
X6604524Y-15308000D01*
X6604524Y-15308000D02*
X6614048Y-15298476D01*
X6614048Y-15298476D02*
X6614048Y-15317524D01*
X6614048Y-15193714D02*
X6623571Y-15203238D01*
X6623571Y-15203238D02*
X6614048Y-15212762D01*
X6614048Y-15212762D02*
X6604524Y-15203238D01*
X6604524Y-15203238D02*
X6614048Y-15193714D01*
X6614048Y-15193714D02*
X6614048Y-15212762D01*
M02*
